HIERARCHY
ROOT RootJoint
{
    OFFSET   0.000000   0.000000   0.000000
    CHANNELS 6 Xposition Yposition Zposition Xrotation Yrotation Zrotation
    JOINT pelvis_lowerback
    {
        OFFSET   0.000000   0.093605   0.000000
        CHANNELS 3 Xrotation Yrotation Zrotation
        JOINT lowerback_torso
        {
            OFFSET   0.000000   0.100000   0.000000
            CHANNELS 3 Xrotation Yrotation Zrotation
            JOINT torso_head
            {
                OFFSET   0.000000   0.282350   0.000000
                CHANNELS 3 Xrotation Yrotation Zrotation
                End Site
                {
                    OFFSET   0.000000   0.192650   0.000000
                }
            }
            JOINT rTorso_Clavicle
            {
                OFFSET  -0.001000   0.157500   0.000000
                CHANNELS 3 Xrotation Yrotation Zrotation
                JOINT rShoulder
                {
                    OFFSET  -0.117647   0.000000   0.000000
                    CHANNELS 3 Xrotation Yrotation Zrotation
                    JOINT rElbow
                    {
                        OFFSET  -0.245000   0.000000   0.000000
                        CHANNELS 3 Xrotation Yrotation Zrotation
                        JOINT rWrist
                        {
                            OFFSET  -0.240000   0.000000   0.000000
                            CHANNELS 3 Xrotation Yrotation Zrotation
                            End Site
                            {
                                OFFSET  -0.116353  -0.002500   0.000000
                            }
                        }
                    }
                }
            }
            JOINT lTorso_Clavicle
            {
                OFFSET   0.001000   0.157500   0.000000
                CHANNELS 3 Xrotation Yrotation Zrotation
                JOINT lShoulder
                {
                    OFFSET   0.117647   0.000000   0.000000
                    CHANNELS 3 Xrotation Yrotation Zrotation
                    JOINT lElbow
                    {
                        OFFSET   0.245000   0.000000   0.000000
                        CHANNELS 3 Xrotation Yrotation Zrotation
                        JOINT lWrist
                        {
                            OFFSET   0.240000   0.000000   0.000000
                            CHANNELS 3 Xrotation Yrotation Zrotation
                            End Site
                            {
                                OFFSET   0.116353  -0.002500   0.000000
                            }
                        }
                    }
                }
            }
        }
    }
    JOINT rHip
    {
        OFFSET  -0.100000  -0.051395   0.000000
        CHANNELS 3 Xrotation Yrotation Zrotation
        JOINT rKnee
        {
            OFFSET   0.000000  -0.410000   0.000000
            CHANNELS 3 Xrotation Yrotation Zrotation
            JOINT rAnkle
            {
                OFFSET   0.000000  -0.390000   0.000000
                CHANNELS 3 Xrotation Yrotation Zrotation
                JOINT rToeJoint
                {
                    OFFSET   0.000000  -0.050000   0.130000
                    CHANNELS 3 Xrotation Yrotation Zrotation
                    End Site
                    {
                        OFFSET  -0.010000   0.002000   0.060000
                    }
                }
            }
        }
    }
    JOINT lHip
    {
        OFFSET   0.100000  -0.051395   0.000000
        CHANNELS 3 Xrotation Yrotation Zrotation
        JOINT lKnee
        {
            OFFSET   0.000000  -0.410000   0.000000
            CHANNELS 3 Xrotation Yrotation Zrotation
            JOINT lAnkle
            {
                OFFSET   0.000000  -0.390000   0.000000
                CHANNELS 3 Xrotation Yrotation Zrotation
                JOINT lToeJoint
                {
                    OFFSET   0.000000  -0.050000   0.130000
                    CHANNELS 3 Xrotation Yrotation Zrotation
                    End Site
                    {
                        OFFSET   0.010000   0.002000   0.060000
                    }
                }
            }
        }
    }
}
MOTION
Frames: 10
Frame Time:   0.008333
 -2.438748   0.901088   4.113288  -1.900503  13.379264   4.812728   5.931856  -0.216777  -4.861662   8.458046  -1.429632  -3.792510   3.166606  -1.460937   1.223833   3.083345   4.191973   8.806774  15.187834  13.496661  47.881719  -0.000269  13.919316  -0.000082   6.034861   4.049243   6.041745   2.326810  -4.074535  -9.290115   8.874001 -16.440219 -34.076904  -0.000539 -13.031609   0.002136   5.316844  -2.076012   0.626676 -11.960276  -1.856523 -13.996789  28.243049   0.001051  -0.003201 -12.266782  -3.924908   2.624821  -2.994297   0.002057   0.001189  -6.760977   1.496459  -1.051434  20.300331  -0.000310   0.001346 -11.319746   3.591467  -0.635933  -0.072715   0.000969   0.001533
 -2.440251   0.901068   4.113249  -1.655438  13.891795   4.284850   5.809996  -0.356356  -4.613669   8.435562  -1.572491  -3.627592   3.175279  -1.470398   1.176682   3.079300   3.916729   8.640658  15.270639  13.104927  47.092973   0.001205  13.769939  -0.000498   5.947822   4.301732   6.120011   2.265905  -4.237270  -9.337091   8.828277 -16.796916 -34.049465  -0.000229 -13.148765   0.001888   5.390646  -1.599433   0.433598 -12.140963  -2.136900 -13.443258  28.220063   0.000847  -0.002634 -12.009501  -4.145887   2.685626  -3.359347   0.002116   0.000611  -7.489246   1.364992  -0.413632  21.004907  -0.000617   0.003916 -11.619446   3.537356  -0.788117  -0.052599   0.000776   0.001293
 -2.442025   0.901286   4.113173  -1.382558  14.537916   3.684063   5.690883  -0.531569  -4.379099   8.389435  -1.779956  -3.417764   3.189624  -1.471141   1.156068   3.111725   3.624584   8.378965  15.391394  12.685468  46.281374   0.002772  13.601632  -0.000850   5.875839   4.420687   6.117022   2.130535  -4.476826  -9.332947   8.728755 -17.209528 -33.999159  -0.000016 -13.305562   0.001716   5.468505  -1.350330   0.261607 -12.292402  -2.415915 -12.817128  28.131037   0.000668  -0.002510 -11.611438  -4.329797   2.723793  -3.934072   0.002300  -0.001017  -8.222039   1.236619   0.316151  21.603744  -0.000731   0.006413 -11.918738   3.508971  -0.914888  -0.030800   0.000612   0.001143
 -2.443962   0.901599   4.113138  -1.098522  15.227218   3.088950   5.570981  -0.737237  -4.195653   8.326665  -2.030047  -3.238521   3.204788  -1.469630   1.140283   3.161351   3.332165   8.062442  15.525812  12.262756  45.479872   0.004223  13.429266  -0.001167   5.819326   4.437539   6.050636   1.956159  -4.750234  -9.287708   8.606605 -17.631446 -33.918219   0.000107 -13.472174   0.001575   5.544682  -1.236041   0.169361 -12.433214  -2.676466 -12.198609  28.028150   0.000509  -0.002530 -11.183368  -4.491116   2.754435  -4.571211   0.002484  -0.002960  -8.919167   1.105836   1.042054  22.097712  -0.000751   0.008085 -12.217289   3.484589  -1.030057  -0.012567   0.000480   0.001014
 -2.446013   0.901943   4.113180  -0.814229  15.913034   2.512141   5.451956  -0.959948  -4.062557   8.253227  -2.304329  -3.101951   3.219265  -1.467731   1.123178   3.218962   3.045366   7.714461  15.663645  11.845776  44.699025   0.005473  13.258131  -0.001457   5.773211   4.387382   5.934382   1.762103  -5.037896  -9.218119   8.474571 -18.047653 -33.817959   0.000191 -13.639328   0.001451   5.618606  -1.195197   0.144991 -12.565755  -2.919313 -11.597388  27.924380   0.000381  -0.002563 -10.760410  -4.636173   2.782052  -5.215265   0.002664  -0.004701  -9.573856   0.972875   1.747261  22.515604  -0.000743   0.008993 -12.509035   3.463136  -1.135971   0.001508   0.000374   0.000889
 -2.448144   0.902285   4.113313  -0.536507  16.567558   1.955739   5.335042  -1.188659  -3.974823   8.173498  -2.589197  -3.007171   3.232577  -1.465904   1.103952   3.279474   2.767743   7.350073  15.799281  11.439872  43.945382   0.006482  13.091199  -0.001717   5.734191   4.293237   5.779763   1.560257  -5.328694  -9.137466   8.339432 -18.451366 -33.709044   0.000269 -13.802886   0.001337   5.690063  -1.198070   0.166163 -12.690556  -3.146568 -11.013107  27.824411   0.000287  -0.002556 -10.355977  -4.767011   2.808999  -5.841248   0.002838  -0.006010 -10.184099   0.837482   2.428198  22.878561  -0.000735   0.009313 -12.789994   3.443868  -1.233333   0.012602   0.000290   0.000771
 -2.450326   0.902609   4.113543  -0.269315  17.174864   1.420140   5.220843  -1.415968  -3.927249   8.090291  -2.875467  -2.950537   3.244498  -1.464284   1.082897   3.339831   2.501518   6.979860  15.929407  11.048531  43.223278   0.007238  12.930339  -0.001942   5.700044   4.170850   5.596920   1.358209  -5.615853  -9.054845   8.205186 -18.839134 -33.599143   0.000357 -13.960743   0.001229   5.758962  -1.229133   0.214129 -12.808160  -3.360002 -10.444594  27.730154   0.000225  -0.002495  -9.975435  -4.884768   2.836431  -6.436907   0.002996  -0.006831 -10.749709   0.699495   3.084041  23.200482  -0.000737   0.009213 -13.058091   3.426150  -1.322513   0.021661   0.000224   0.000661
 -2.453039   0.903406   4.113591   0.139045  18.150820   0.380219   5.051644  -1.595088  -3.511392   8.047140  -3.267084  -2.598818   3.285316  -1.447047   1.100138   3.455699   2.087961   6.589318  15.959280  10.402963  42.241610   0.009503  12.677606  -0.002619   5.634644   4.183657   5.617999   1.226358  -6.083539  -8.901550   8.102833 -19.798689 -33.569646   0.000995 -14.396760   0.003012   5.801066  -0.804471   0.039926 -12.791085  -3.700479  -9.359958  27.227951  -0.000057  -0.006114  -9.116961  -5.223114   2.895287  -7.465551   0.004029  -0.010367 -11.648524   0.500967   4.274780  23.689593  -0.000743   0.011943 -13.279798   3.551952  -1.431763  -0.074307   0.000330  -0.000434
 -2.455886   0.904323   4.113637   0.584834  19.202860  -0.684197   4.895886  -1.793591  -3.113387   7.991795  -3.699932  -2.229810   3.334044  -1.420898   1.140587   3.578153   1.680371   6.126565  16.004762   9.759802  41.256405   0.011561  12.421169  -0.003061   5.578945   4.095422   5.555870   1.029796  -6.618252  -8.738839   7.947840 -20.785273 -33.541420   0.001358 -14.853912   0.004376   5.853349  -0.609118  -0.162260 -12.752327  -4.019936  -8.311833  26.668047  -0.000587  -0.009872  -8.173452  -5.546849   2.918273  -8.606864   0.004255  -0.014820 -12.546686   0.296100   5.469695  24.069636  -0.000649   0.013444 -13.503007   3.675860  -1.528567  -0.154633   0.000406  -0.001220
 -2.458855   0.905262   4.113777   1.049114  20.291243  -1.727323   4.751567  -2.026500  -2.759770   7.926932  -4.160621  -1.895812   3.382722  -1.394573   1.184465   3.697631   1.288400   5.633871  16.051718   9.137820  40.297736   0.013201  12.171827  -0.003353   5.533386   3.942559   5.430103   0.799015  -7.174995  -8.569722   7.769780 -21.749817 -33.498994   0.001543 -15.302831   0.005244   5.905109  -0.556016  -0.309227 -12.701336  -4.283845  -7.312642  26.127566  -0.001126  -0.013058  -7.251057  -5.799347   2.945610  -9.766313   0.004502  -0.020016 -13.417809   0.080969   6.620264  24.355335  -0.000541   0.013793 -13.728677   3.793098  -1.616662  -0.229758   0.000469  -0.001817
